<svg width="92" height="92" viewBox="0 0 92 92" fill="none" xmlns="http://www.w3.org/2000/svg">
<path d="M90 46C90.0074 51.7955 88.8663 57.535 86.6425 62.8869C84.4188 68.2387 81.1565 73.0969 77.0442 77.1806C72.9655 81.2521 68.1245 84.4799 62.7978 86.6795C57.471 88.8791 51.763 90.0074 46 90C21.6988 90 2.00004 70.3012 2.00004 46C1.98466 34.7179 6.31835 23.864 14.1 15.695C18.206 11.3623 23.1528 7.91307 28.6379 5.55827C34.123 3.20348 40.0308 1.9927 46 2.00004C51.763 1.99257 57.471 3.1209 62.7978 5.32052C68.1245 7.52014 72.9655 10.7479 77.0442 14.8194C81.1565 18.9031 84.4188 23.7613 86.6425 29.1131C88.8663 34.465 90.0074 40.2045 90 46V46Z" stroke="#CBCBCB" stroke-width="4" stroke-linecap="round" stroke-linejoin="round"/>
<path d="M89.9998 45.999C83.5802 45.999 65.8702 43.579 50.0192 50.5376C32.7998 58.099 20.3324 69.8272 14.8984 77.1224" stroke="#CBCBCB" stroke-width="4" stroke-linecap="round" stroke-linejoin="round"/>
<path d="M29.5 5.19727C36.386 11.5531 51.412 27.7362 57 43.7984C62.588 59.8628 64.656 79.6144 65.932 85.2354" stroke="#CBCBCB" stroke-width="4" stroke-linecap="round" stroke-linejoin="round"/>
<path d="M2.33887 40.5003C10.6505 41.0019 32.6526 41.453 46.7326 35.4404C60.8126 29.4278 72.928 18.3684 77.0838 14.8594" stroke="#CBCBCB" stroke-width="4" stroke-linecap="round" stroke-linejoin="round"/>
<path d="M5.2998 62.75C9.17689 72.135 16.1693 79.8973 25.0998 84.7302" stroke="#CBCBCB" stroke-width="4" stroke-linecap="round" stroke-linejoin="round"/>
<path d="M2.00004 46.0003C1.98466 34.7182 6.31835 23.8642 14.1 15.6953" stroke="#CBCBCB" stroke-width="4" stroke-linecap="round" stroke-linejoin="round"/>
<path d="M45.9996 2.00003C40.0304 1.9927 34.1225 3.20348 28.6375 5.55827C23.1524 7.91306 18.2056 11.3623 14.0996 15.695" stroke="#CBCBCB" stroke-width="4" stroke-linecap="round" stroke-linejoin="round"/>
<path d="M63.5996 5.66016C68.6104 7.85254 73.1694 10.9583 77.0438 14.8187C81.1561 18.9024 84.4184 23.7606 86.6421 29.1125C88.8659 34.4643 90.007 40.2038 89.9996 45.9993C89.9996 51.4179 89.0206 56.6055 87.2276 61.3993" stroke="#CBCBCB" stroke-width="4" stroke-linecap="round" stroke-linejoin="round"/>
<path d="M46 89.9991C51.763 90.0065 57.471 88.8782 62.7977 86.6786C68.1245 84.479 72.9655 81.2512 77.0442 77.1797" stroke="#CBCBCB" stroke-width="4" stroke-linecap="round" stroke-linejoin="round"/>
</svg>
