<svg width="88" height="88" viewBox="0 0 88 88" fill="none" xmlns="http://www.w3.org/2000/svg">
<path d="M44.0049 3.78158e-06C19.6921 -0.0100949 0 20.2075 0 45.1614C0 64.8942 12.3186 81.6681 29.4742 87.8283C31.7846 88.4241 31.4307 86.7377 31.4307 85.5864V77.7599C18.0896 79.3656 17.5489 70.297 16.6542 68.7822C14.8453 65.6112 10.5687 64.8033 11.8467 63.2885C14.8846 61.6828 17.9815 63.6924 21.5699 69.1356C24.1653 73.0842 29.2285 72.4177 31.7944 71.7613C32.3548 69.3881 33.5542 67.2674 35.2059 65.6213C21.3831 63.0764 15.6219 54.4118 15.6219 44.1111C15.6219 39.1122 17.2244 34.5173 20.3705 30.8111C18.3649 24.7014 20.5573 19.4703 20.8522 18.6927C26.5642 18.1675 32.5023 22.8937 32.9644 23.2674C36.2087 22.3686 39.9151 21.894 44.0639 21.894C48.2324 21.894 51.9486 22.3888 55.2224 23.2977C56.3334 22.4292 61.8389 18.3695 67.1478 18.8644C67.4329 19.642 69.5761 24.7519 67.6885 30.7808C70.8739 34.4971 72.496 39.1324 72.496 44.1414C72.496 54.4622 66.6956 63.137 52.8334 65.6415C54.0208 66.8409 54.9635 68.2713 55.6066 69.8492C56.2498 71.427 56.5804 73.1207 56.5792 74.8313V86.1923C56.6578 87.1012 56.5792 88 58.0539 88C75.4651 81.9711 88 65.076 88 45.1714C88 20.2075 68.2981 3.78158e-06 44.0049 3.78158e-06V3.78158e-06Z" fill="#CBCBCB"/>
</svg>
