<svg width="186" height="186" viewBox="0 0 186 186" fill="none" xmlns="http://www.w3.org/2000/svg">
<path fill-rule="evenodd" clip-rule="evenodd" d="M11.625 92.8584C11.625 114.279 20.1984 134.823 35.4592 149.97C50.72 165.116 71.418 173.626 93 173.626C114.582 173.626 135.28 165.116 150.541 149.97C165.802 134.823 174.375 114.279 174.375 92.8584C174.375 71.4375 165.802 50.894 150.541 35.7472C135.28 20.6003 114.582 12.0909 93 12.0909C71.418 12.0909 50.72 20.6003 35.4592 35.7472C20.1984 50.894 11.625 71.4375 11.625 92.8584ZM186 92.8584C186 117.339 176.202 140.818 158.761 158.128C141.32 175.439 117.665 185.164 93 185.164C68.3349 185.164 44.68 175.439 27.2391 158.128C9.79819 140.818 0 117.339 0 92.8584C0 68.3774 9.79819 44.8991 27.2391 27.5884C44.68 10.2778 68.3349 0.552734 93 0.552734C117.665 0.552734 141.32 10.2778 158.761 27.5884C176.202 44.8991 186 68.3774 186 92.8584ZM68.0527 125.2C66.9629 126.283 65.484 126.892 63.9416 126.894C62.3992 126.895 60.9195 126.288 59.8281 125.206C58.7366 124.124 58.1229 122.656 58.1218 121.125C58.1207 119.594 58.7324 118.126 59.8223 117.042L107.45 69.782H75.2719C73.7303 69.782 72.2519 69.1742 71.1618 68.0922C70.0718 67.0103 69.4594 65.5429 69.4594 64.0129C69.4594 62.4828 70.0718 61.0154 71.1618 59.9335C72.2519 58.8516 73.7303 58.2438 75.2719 58.2438H121.481C123.023 58.2438 124.501 58.8516 125.591 59.9335C126.681 61.0154 127.294 62.4828 127.294 64.0129V109.877C127.294 111.407 126.681 112.875 125.591 113.957C124.501 115.039 123.023 115.646 121.481 115.646C119.94 115.646 118.461 115.039 117.371 113.957C116.281 112.875 115.669 111.407 115.669 109.877V77.9395L68.0527 125.2Z" fill="#FF7E21"/>
</svg>
