<svg width="88" height="88" viewBox="0 0 88 88" fill="none" xmlns="http://www.w3.org/2000/svg">
<path d="M81.4 0H6.6C2.93333 0 0 2.94561 0 6.25941V81.7406C0 85.0544 2.93333 88 6.6 88H81.4C85.0667 88 88 85.0544 88 81.7406V6.25941C88 2.94561 85.0667 0 81.4 0ZM26.0333 75.113H13.2V33.1381H26.0333V75.113ZM19.8 27.2469C15.7667 27.2469 12.1 23.9331 12.1 19.5146C12.1 15.0962 15.4 11.7824 19.8 11.7824C23.8333 11.7824 27.5 15.0962 27.5 19.5146C27.5 23.9331 23.8333 27.2469 19.8 27.2469ZM75.1667 74.7448H62.3333V54.1255C62.3333 49.3389 62.3333 42.7113 55.3667 42.7113C48.4 42.7113 47.6667 48.2343 47.6667 53.3891V74.3766H34.8333V33.1381H46.9333V38.6611H47.3C49.1333 35.3473 53.5333 31.6653 59.7667 31.6653C72.9667 31.6653 75.5333 40.5021 75.5333 51.9163V74.7448H75.1667Z" fill="#CBCBCB"/>
</svg>
