<svg width="88" height="88" viewBox="0 0 88 88" fill="none" xmlns="http://www.w3.org/2000/svg">
<path fill-rule="evenodd" clip-rule="evenodd" d="M25.86 0.264C30.552 0.0479999 32.048 0 44 0C55.952 0 57.448 0.0519999 62.136 0.264C66.824 0.476 70.024 1.224 72.824 2.308C75.756 3.416 78.416 5.148 80.616 7.388C82.856 9.584 84.584 12.24 85.688 15.176C86.776 17.976 87.52 21.176 87.736 25.856C87.952 30.556 88 32.052 88 44C88 55.952 87.948 57.448 87.736 62.14C87.524 66.82 86.776 70.02 85.688 72.82C84.584 75.7564 82.8531 78.4168 80.616 80.616C78.416 82.856 75.756 84.584 72.824 85.688C70.024 86.776 66.824 87.52 62.144 87.736C57.448 87.952 55.952 88 44 88C32.048 88 30.552 87.948 25.86 87.736C21.18 87.524 17.98 86.776 15.18 85.688C12.2437 84.5839 9.58328 82.853 7.384 80.616C5.14552 78.4187 3.41326 75.7595 2.308 72.824C1.224 70.024 0.48 66.824 0.264 62.144C0.0479999 57.444 0 55.948 0 44C0 32.048 0.0519999 30.552 0.264 25.864C0.476 21.176 1.224 17.976 2.308 15.176C3.41489 12.2403 5.14847 9.58125 7.388 7.384C9.58416 5.146 12.2419 3.41377 15.176 2.308C17.976 1.224 21.176 0.48 25.856 0.264H25.86ZM61.78 8.184C57.14 7.972 55.748 7.928 44 7.928C32.252 7.928 30.86 7.972 26.22 8.184C21.928 8.38 19.6 9.096 18.048 9.7C15.996 10.5 14.528 11.448 12.988 12.988C11.5282 14.4082 10.4047 16.1371 9.7 18.048C9.096 19.6 8.38 21.928 8.184 26.22C7.972 30.86 7.928 32.252 7.928 44C7.928 55.748 7.972 57.14 8.184 61.78C8.38 66.072 9.096 68.4 9.7 69.952C10.404 71.86 11.528 73.592 12.988 75.012C14.408 76.472 16.14 77.596 18.048 78.3C19.6 78.904 21.928 79.62 26.22 79.816C30.86 80.028 32.248 80.072 44 80.072C55.752 80.072 57.14 80.028 61.78 79.816C66.072 79.62 68.4 78.904 69.952 78.3C72.004 77.5 73.472 76.552 75.012 75.012C76.472 73.592 77.596 71.86 78.3 69.952C78.904 68.4 79.62 66.072 79.816 61.78C80.028 57.14 80.072 55.748 80.072 44C80.072 32.252 80.028 30.86 79.816 26.22C79.62 21.928 78.904 19.6 78.3 18.048C77.5 15.996 76.552 14.528 75.012 12.988C73.5917 11.5283 71.8628 10.4048 69.952 9.7C68.4 9.096 66.072 8.38 61.78 8.184V8.184ZM38.38 57.564C41.5186 58.8705 45.0135 59.0469 48.2677 58.0629C51.5219 57.0789 54.3336 54.9957 56.2224 52.169C58.1113 49.3423 58.9602 45.9475 58.6242 42.5644C58.2882 39.1814 56.788 36.0199 54.38 33.62C52.8449 32.0859 50.9888 30.9112 48.9453 30.1806C46.9018 29.4499 44.7217 29.1814 42.562 29.3945C40.4022 29.6075 38.3166 30.2967 36.4552 31.4125C34.5938 32.5283 33.003 34.043 31.7972 35.8474C30.5914 37.6518 29.8008 39.7012 29.4821 41.8478C29.1634 43.9945 29.3246 46.1852 29.9542 48.2621C30.5837 50.339 31.6659 52.2504 33.1229 53.8589C34.5798 55.4673 36.3753 56.7327 38.38 57.564ZM28.008 28.008C30.1081 25.9079 32.6013 24.242 35.3452 23.1054C38.0891 21.9689 41.03 21.3839 44 21.3839C46.97 21.3839 49.9109 21.9689 52.6548 23.1054C55.3987 24.242 57.8919 25.9079 59.992 28.008C62.0921 30.1081 63.758 32.6013 64.8946 35.3452C66.0311 38.0891 66.6161 41.03 66.6161 44C66.6161 46.97 66.0311 49.9109 64.8946 52.6548C63.758 55.3987 62.0921 57.8919 59.992 59.992C55.7507 64.2333 49.9982 66.6161 44 66.6161C38.0018 66.6161 32.2493 64.2333 28.008 59.992C23.7667 55.7507 21.3839 49.9982 21.3839 44C21.3839 38.0018 23.7667 32.2493 28.008 28.008V28.008ZM71.632 24.752C72.1524 24.2611 72.569 23.6707 72.8572 23.0159C73.1454 22.3611 73.2992 21.6551 73.3097 20.9397C73.3201 20.2244 73.1869 19.5142 72.9179 18.8512C72.649 18.1883 72.2497 17.586 71.7438 17.0802C71.238 16.5743 70.6357 16.175 69.9728 15.9061C69.3098 15.6371 68.5996 15.5039 67.8843 15.5143C67.1689 15.5248 66.4629 15.6786 65.8081 15.9668C65.1533 16.255 64.5629 16.6716 64.072 17.192C63.1172 18.2041 62.5945 19.5485 62.6148 20.9397C62.6351 22.331 63.1968 23.6595 64.1806 24.6434C65.1645 25.6272 66.493 26.1889 67.8843 26.2092C69.2755 26.2295 70.6199 25.7068 71.632 24.752V24.752Z" fill="#CBCBCB"/>
</svg>
