<svg width="88" height="88" viewBox="0 0 88 88" fill="none" xmlns="http://www.w3.org/2000/svg">
<path d="M84.48 0H3.52C1.573 0 0 1.573 0 3.52V84.48C0 86.427 1.573 88 3.52 88H84.48C86.427 88 88 86.427 88 84.48V3.52C88 1.573 86.427 0 84.48 0ZM72.16 22.627L67.672 26.928C67.276 27.225 67.089 27.709 67.166 28.182V59.829C67.089 60.313 67.276 60.797 67.672 61.083L72.072 65.384V66.341H49.984V65.428L54.527 61.017C54.978 60.566 54.978 60.434 54.978 59.763V34.155L42.328 66.231H40.623L25.905 34.155V55.66C25.773 56.562 26.092 57.475 26.73 58.124L32.648 65.285V66.242H15.84V65.285L21.758 58.124C22.0698 57.8019 22.3019 57.4113 22.4356 56.9834C22.5693 56.5555 22.6009 56.1023 22.528 55.66V30.8C22.605 30.107 22.341 29.436 21.813 28.963L16.555 22.627V21.67H32.89L45.496 49.335L56.595 21.692H72.16V22.627Z" fill="#CBCBCB"/>
</svg>
